<svg xmlns="http://www.w3.org/2000/svg" viewBox="0 0 32.29 32.29"><defs><style>.cls-1{fill:gray;}</style></defs><g id="Layer_2" data-name="Layer 2"><g id="Layer_3" data-name="Layer 3"><path class="cls-1" d="M24.76,5.59h0A1.94,1.94,0,1,0,26.7,7.52a1.92,1.92,0,0,0-1.94-1.93Zm7.43,3.9a12.21,12.21,0,0,0-.74-3.92,7.91,7.91,0,0,0-1.88-2.86A7.48,7.48,0,0,0,26.72.86,11.48,11.48,0,0,0,22.79.1C21.08,0,20.53,0,16.14,0S11.2,0,9.49.1A11.43,11.43,0,0,0,5.57.86,7.63,7.63,0,0,0,2.71,2.71,7.51,7.51,0,0,0,.86,5.57,11.43,11.43,0,0,0,.1,9.49C0,11.2,0,11.75,0,16.14s0,4.94.1,6.65a11.48,11.48,0,0,0,.76,3.93,7.48,7.48,0,0,0,1.85,2.85,7.66,7.66,0,0,0,2.86,1.86,11.67,11.67,0,0,0,3.92.76c1.71.1,2.26.1,6.65.1s4.94,0,6.65-.1a11.72,11.72,0,0,0,3.93-.76,7.5,7.5,0,0,0,2.85-1.86,7.79,7.79,0,0,0,1.88-2.85,12.27,12.27,0,0,0,.74-3.93c0-1.71.1-2.26.1-6.65S32.29,11.2,32.19,9.49ZM29.28,22.6a8.76,8.76,0,0,1-.55,3,4.8,4.8,0,0,1-1.21,1.86,5.08,5.08,0,0,1-1.85,1.21,9,9,0,0,1-3,.55c-1.62.08-2.22.1-6.46.1s-4.85,0-6.46-.1a9,9,0,0,1-3.13-.49,5.12,5.12,0,0,1-1.78-1.21,4.83,4.83,0,0,1-1.19-1.85A9,9,0,0,1,3,22.6c0-1.61-.09-2.21-.09-6.46s0-4.84.09-6.45a8.93,8.93,0,0,1,.57-3.07A4.89,4.89,0,0,1,4.84,4.84,5.19,5.19,0,0,1,6.62,3.55,9.41,9.41,0,0,1,9.69,3c1.61,0,2.21-.09,6.45-.09S21,2.91,22.6,3a9,9,0,0,1,3,.55,4.87,4.87,0,0,1,1.92,1.29,4.9,4.9,0,0,1,1.21,1.78,8.91,8.91,0,0,1,.55,3.07c.08,1.61.1,2.21.1,6.45S29.36,21,29.28,22.6ZM16.14,7.86a8.28,8.28,0,1,0,.05,0Zm0,13.66a5.38,5.38,0,1,1,5.38-5.38h0A5.38,5.38,0,0,1,16.14,21.52Z"/></g></g></svg>